<?xml version="1.0" encoding="utf-8"?>
<!-- Generator: Adobe Illustrator 23.0.6, SVG Export Plug-In . SVG Version: 6.00 Build 0)  -->
<svg version="1.1" id="Calque_1" xmlns="http://www.w3.org/2000/svg" x="0px" y="0px"
     viewBox="0 0 448.3 140.6" style="enable-background:new 0 0 448.3 140.6;" xml:space="preserve">
<style type="text/css">
	.st0{fill:#FFFFFF;}
	.st1{fill:none;stroke:#FFFFFF;stroke-width:7;stroke-linecap:round;stroke-miterlimit:10;}
</style>
    <path class="st0" d="M161.5,36.7c0-1.3,0.5-2.4,1.4-3.3c0.9-0.9,2-1.4,3.4-1.4s2.4,0.5,3.4,1.4c0.9,0.9,1.4,2,1.4,3.3
	c0,1.4-0.4,2.5-1.3,3.4c-0.9,0.9-2,1.3-3.4,1.3s-2.5-0.4-3.4-1.3C162,39.2,161.5,38.1,161.5,36.7z M163,51.9h6.5v38.8H163V51.9z"/>
    <path class="st0" d="M191.5,80.5c1.3,1.6,2.7,2.9,4.2,3.8c1.5,0.9,3.4,1.4,5.8,1.4c1,0,2-0.1,3-0.3c1-0.2,2-0.6,2.8-1.1
	s1.5-1.1,2-1.9c0.5-0.7,0.7-1.6,0.7-2.7c0-1-0.2-1.9-0.7-2.6c-0.5-0.7-1.1-1.2-1.9-1.7c-0.8-0.5-1.7-0.8-2.7-1.1
	c-1-0.3-2-0.5-3.1-0.7c-1.8-0.4-3.6-0.8-5.2-1.3c-1.7-0.5-3.1-1.1-4.4-2c-1.2-0.8-2.2-1.8-3-3.1s-1.1-2.9-1.1-4.9
	c0-1.9,0.4-3.5,1.2-5c0.8-1.4,1.9-2.6,3.3-3.6c1.4-0.9,2.9-1.7,4.6-2.2c1.7-0.5,3.5-0.7,5.3-0.7c2.8,0,5.3,0.6,7.7,1.7
	c2.4,1.1,4.2,2.9,5.5,5.4l-5.4,3.6c-0.8-1.4-1.9-2.5-3.3-3.4c-1.4-0.9-3-1.3-4.9-1.3c-0.9,0-1.8,0.1-2.7,0.3c-0.9,0.2-1.7,0.6-2.4,1
	c-0.7,0.4-1.3,1-1.8,1.7c-0.5,0.7-0.7,1.5-0.7,2.4c0,0.8,0.3,1.5,0.8,2.1s1.2,1.1,2.2,1.5c0.9,0.4,2,0.8,3.2,1.2
	c1.2,0.3,2.4,0.6,3.7,0.8c1.7,0.3,3.3,0.8,4.9,1.3c1.5,0.5,2.9,1.2,4.1,2.1c1.2,0.9,2.1,2,2.7,3.3s1,3,1,4.9c0,2.2-0.4,4.1-1.3,5.6
	c-0.9,1.5-2.1,2.8-3.5,3.8c-1.5,1-3.1,1.7-5,2.1s-3.7,0.7-5.7,0.7c-3.3,0-6.2-0.5-8.6-1.5c-2.4-1-4.6-2.9-6.5-5.7L191.5,80.5z"/>
    <path class="st0" d="M233.4,36.7c0-1.3,0.5-2.4,1.4-3.3c0.9-0.9,2-1.4,3.4-1.4s2.4,0.5,3.4,1.4c0.9,0.9,1.4,2,1.4,3.3
	c0,1.4-0.4,2.5-1.3,3.4c-0.9,0.9-2,1.3-3.4,1.3s-2.5-0.4-3.4-1.3C233.8,39.2,233.4,38.1,233.4,36.7z M234.9,51.9h6.5v38.8h-6.5V51.9
	z"/>
    <path class="st0" d="M261.7,71.5c0-3.2,0.6-6.1,1.7-8.7c1.2-2.6,2.8-4.8,4.8-6.7c2-1.9,4.4-3.3,7.1-4.3c2.7-1,5.7-1.5,8.8-1.5
	c3.1,0,6,0.5,8.8,1.5s5.1,2.4,7.1,4.3c2,1.9,3.6,4.1,4.8,6.7c1.2,2.6,1.7,5.5,1.7,8.7c0,3.2-0.6,6.1-1.7,8.7
	c-1.2,2.6-2.8,4.8-4.8,6.7c-2,1.9-4.4,3.3-7.1,4.3s-5.7,1.5-8.8,1.5c-3.1,0-6-0.5-8.8-1.5c-2.7-1-5.1-2.4-7.1-4.3
	c-2-1.9-3.6-4.1-4.8-6.7C262.3,77.7,261.7,74.7,261.7,71.5z M274.1,71.5c0,3,0.9,5.5,2.6,7.4c1.7,1.9,4.2,2.8,7.3,2.8
	c3.2,0,5.6-0.9,7.3-2.8c1.7-1.9,2.6-4.3,2.6-7.4c0-3-0.9-5.5-2.6-7.4c-1.7-1.9-4.2-2.8-7.3-2.8c-3.2,0-5.6,0.9-7.3,2.8
	C275,66,274.1,68.5,274.1,71.5z"/>
    <path class="st0" d="M310.2,71.5c0-4.1,0.7-7.7,2.2-11c1.5-3.3,3.5-6.1,6.1-8.5c2.6-2.3,5.6-4.2,9-5.4c3.5-1.3,7.2-1.9,11.1-1.9
	c3.9,0,7.6,0.6,11.1,1.9c3.5,1.3,6.5,3.1,9,5.4c2.6,2.4,4.6,5.2,6.1,8.5c1.5,3.3,2.2,7,2.2,11c0,4.1-0.7,7.8-2.2,11
	c-1.5,3.3-3.5,6.1-6.1,8.5c-2.6,2.4-5.6,4.2-9,5.4c-3.5,1.3-7.2,1.9-11.1,1.9c-3.9,0-7.6-0.6-11.1-1.9c-3.5-1.3-6.5-3.1-9-5.4
	c-2.6-2.3-4.6-5.2-6.1-8.5C311,79.3,310.2,75.6,310.2,71.5z M326,71.5c0,3.9,1.1,7,3.3,9.4c2.2,2.4,5.3,3.6,9.3,3.6
	c4,0,7.1-1.2,9.3-3.6c2.2-2.4,3.3-5.5,3.3-9.4c0-3.9-1.1-7-3.3-9.4c-2.2-2.4-5.3-3.6-9.3-3.6c-4,0-7.1,1.2-9.3,3.6
	C327.1,64.6,326,67.7,326,71.5z"/>
    <path class="st0" d="M379.4,61.1c0-1.8-0.1-3.4-0.2-5c-0.1-1.5-0.2-3-0.2-4.2h6.1c0,1.1,0,2.1,0.1,3.2c0.1,1.1,0.1,2.1,0.1,3.2h0.2
	c0.4-0.9,1.1-1.9,1.9-2.7c0.8-0.9,1.8-1.7,2.9-2.4c1.1-0.7,2.4-1.2,3.7-1.7c1.4-0.4,2.9-0.6,4.5-0.6c2.5,0,4.7,0.4,6.6,1.2
	c1.9,0.8,3.4,1.9,4.6,3.2c1.2,1.4,2.1,3.1,2.7,5c0.6,2,0.9,4.1,0.9,6.4v24h-6.5V67.4c0-3.3-0.7-5.8-2.2-7.7
	c-1.4-1.9-3.7-2.8-6.7-2.8c-2.1,0-3.9,0.4-5.4,1.1c-1.5,0.7-2.8,1.7-3.7,3.1c-1,1.3-1.7,2.9-2.2,4.7c-0.5,1.8-0.7,3.8-0.7,6.1v18.9
	h-6.5V61.1z"/>
    <g>
	<g>
		<path class="st0" d="M35.3,63.1c3.7-3.8,6.9-7.9,10.4-11.8c2.7-3,6-7.1,10.2-8c5.7-1.2,9,4,10.8,8.6c3.8,9.8,5.5,20.2,9.4,30
			c2.6,6.5,7.6,16.5,16.1,11.8c6.2-3.4,10-10.3,14-15.7c5.6-7.6,11.5-14.9,18.2-21.6c4.6-4.6,11-11.5,17.8-13c1.9-0.4,0.9-9.2,0-9
			c-4.9,1-9.7,5.4-13.3,8.6c-6.1,5.3-11.4,11.3-16.5,17.6c-5.8,7.2-10.5,16-17.5,22.1c-17.3,15.1-23.7-30-27.4-39.1
			c-1.8-4.4-5-9.9-10.6-9.4c-3.9,0.3-7.2,3.7-9.7,6.3c-4.3,4.5-8,9.5-12.4,13.9C33.1,56.1,35,63.5,35.3,63.1L35.3,63.1z"/>
	</g>
</g>
    <path class="st1" d="M260.1,98.7c13.3,13.3,34.8,13.3,48.1,0"/>
</svg>
